<?xml version="1.0" encoding="utf-8"?>
<!-- Generator: Adobe Illustrator 25.0.1, SVG Export Plug-In . SVG Version: 6.00 Build 0)  -->
<svg version="1.1" id="Capa_1" xmlns="http://www.w3.org/2000/svg" xmlns:xlink="http://www.w3.org/1999/xlink" x="0px" y="0px"
	 viewBox="0 0 47 47" style="enable-background:new 0 0 47 47;" xml:space="preserve">
<style type="text/css">
	.st0{fill:#FFFFFF;}
</style>
<g>
	<g>
		<path class="st0" d="M11.8,35.9H1.9c-1,0-1.9,0.8-1.9,1.9v4.9c0,1,0.8,1.9,1.9,1.9h9.9c1,0,1.9-0.8,1.9-1.9v-4.9
			C13.6,36.7,12.8,35.9,11.8,35.9z"/>
		<path class="st0" d="M11.8,24.7H1.9c-1,0-1.9,0.8-1.9,1.9v4.9c0,1,0.8,1.9,1.9,1.9h9.9c1,0,1.9-0.8,1.9-1.9v-4.9
			C13.6,25.6,12.8,24.7,11.8,24.7z"/>
		<path class="st0" d="M11.8,13.6H1.9c-1,0-1.9,0.8-1.9,1.9v4.9c0,1,0.8,1.9,1.9,1.9h9.9c1,0,1.9-0.8,1.9-1.9v-4.9
			C13.6,14.4,12.8,13.6,11.8,13.6z"/>
		<path class="st0" d="M28.4,35.9h-9.9c-1,0-1.9,0.8-1.9,1.9v4.9c0,1,0.8,1.9,1.9,1.9h9.9c1,0,1.9-0.8,1.9-1.9v-4.9
			C30.3,36.7,29.5,35.9,28.4,35.9z"/>
		<path class="st0" d="M28.4,24.7h-9.9c-1,0-1.9,0.8-1.9,1.9v4.9c0,1,0.8,1.9,1.9,1.9h9.9c1,0,1.9-0.8,1.9-1.9v-4.9
			C30.3,25.6,29.5,24.7,28.4,24.7z"/>
		<path class="st0" d="M45.1,35.9h-9.9c-1,0-1.9,0.8-1.9,1.9v4.9c0,1,0.8,1.9,1.9,1.9h9.9c1,0,1.9-0.8,1.9-1.9v-4.9
			C47,36.7,46.2,35.9,45.1,35.9z"/>
		<path class="st0" d="M45.1,24.7h-9.9c-1,0-1.9,0.8-1.9,1.9v4.9c0,1,0.8,1.9,1.9,1.9h9.9c1,0,1.9-0.8,1.9-1.9v-4.9
			C47,25.6,46.2,24.7,45.1,24.7z"/>
		<path class="st0" d="M45.1,13.6h-9.9c-1,0-1.9,0.8-1.9,1.9v4.9c0,1,0.8,1.9,1.9,1.9h9.9c1,0,1.9-0.8,1.9-1.9v-4.9
			C47,14.4,46.2,13.6,45.1,13.6z"/>
		<path class="st0" d="M45.1,2.5h-9.9c-1,0-1.9,0.8-1.9,1.9v4.9c0,1,0.8,1.9,1.9,1.9h9.9c1,0,1.9-0.8,1.9-1.9V4.3
			C47,3.3,46.2,2.5,45.1,2.5z"/>
	</g>
</g>
</svg>
