<?xml version="1.0" encoding="utf-8"?>
<!-- Generator: Adobe Illustrator 25.0.1, SVG Export Plug-In . SVG Version: 6.00 Build 0)  -->
<svg version="1.1" id="Capa_1" xmlns="http://www.w3.org/2000/svg" xmlns:xlink="http://www.w3.org/1999/xlink" x="0px" y="0px"
	 viewBox="0 0 512 512" style="enable-background:new 0 0 512 512;" xml:space="preserve">
<style type="text/css">
	.st0{fill:#FFFFFF;}
</style>
<path class="st0" d="M382.6,233.4c-2.6-5.7-8.3-9.4-14.6-9.4h-64V16c0-8.8-7.2-16-16-16h-64c-8.8,0-16,7.2-16,16v208h-64
	c-6.3,0-12,3.7-14.6,9.4c-2.6,5.7-1.6,12.4,2.5,17.2l112,128c3,3.5,7.4,5.5,12,5.5s9-2,12-5.5l112-128
	C384.2,245.8,385.2,239.1,382.6,233.4z"/>
<path class="st0" d="M432,352v96H80v-96H16v128c0,17.7,14.3,32,32,32h416c17.7,0,32-14.3,32-32V352H432z"/>
</svg>
