<?xml version="1.0" encoding="utf-8"?>
<!-- Generator: Adobe Illustrator 25.0.1, SVG Export Plug-In . SVG Version: 6.00 Build 0)  -->
<svg version="1.1" id="Capa_1" xmlns="http://www.w3.org/2000/svg" xmlns:xlink="http://www.w3.org/1999/xlink" x="0px" y="0px"
	 viewBox="0 0 512 512" style="enable-background:new 0 0 512 512;" xml:space="preserve">
<style type="text/css">
	.st0{fill:#FFFFFF;}
</style>
<g>
	<g>
		<path class="st0" d="M493.8,70.6c-11-1-20.7,7.1-21.7,18.1l-2.6,29.1C424.5,47.2,346.4,0,256,0C158.7,0,73,55.5,30.4,138.9
			c-5,9.8-1.1,21.9,8.7,26.9c9.8,5,21.9,1.1,26.9-8.7C102.1,86.5,174.4,40,256,40c74.4,0,141.5,38.7,180,99.4L407.4,119
			c-9-6.4-21.5-4.3-27.9,4.7c-6.4,9-4.3,21.5,4.7,27.9l86.5,61.8c12.7,9,30.2,0.8,31.5-14.5l9.7-106.5
			C512.9,81.4,504.8,71.6,493.8,70.6z"/>
	</g>
</g>
<g>
	<g>
		<path class="st0" d="M472.9,346.2c-9.8-5-21.9-1.1-26.9,8.7c-36,70.5-108.3,117-189.9,117c-74.4,0-141.5-38.7-180-99.4l28.5,20.4
			c9,6.4,21.5,4.3,27.9-4.7c6.4-9,4.3-21.5-4.7-27.9l-86.5-61.8c-12.5-8.9-30.1-0.9-31.5,14.5L0.1,419.6c-1,11,7.1,20.7,18.1,21.7
			c11,1,20.7-7.1,21.7-18.1l2.7-29.1C87.5,464.8,165.6,512,256,512c97.3,0,183-55.5,225.6-138.9
			C486.6,363.3,482.7,351.3,472.9,346.2z"/>
	</g>
</g>
</svg>
