<?xml version="1.0" encoding="utf-8"?>
<!-- Generator: Adobe Illustrator 25.0.1, SVG Export Plug-In . SVG Version: 6.00 Build 0)  -->
<svg version="1.1" id="Capa_1" xmlns="http://www.w3.org/2000/svg" xmlns:xlink="http://www.w3.org/1999/xlink" x="0px" y="0px"
	 viewBox="0 0 512 512" style="enable-background:new 0 0 512 512;" xml:space="preserve">
<style type="text/css">
	.st0{fill:#FFFFFF;}
</style>
<path class="st0" d="M452.9,385.8v-54.7c27.4-0.7,49.6-23.2,49.6-50.8c0-28-22.8-50.8-50.8-50.8h-60.4l-20.3-93.3
	c-6-27.4-33.1-44.8-60.5-38.9c-27.4,6-44.8,33.1-38.9,60.5l37.8,173.4h38.9v54.6H192.1v-54.7c27.4-0.7,49.6-23.2,49.6-50.8
	c0-28-22.8-50.8-50.8-50.8h-60.4l-20.3-93.3c-6-27.4-33.1-44.8-60.5-38.9c-27.4,6-44.8,33.1-38.9,60.5l37.8,173.4h38.9v54.6H0v30
	h512v-30L452.9,385.8z M300.9,151.4c-2.4-11.2,4.7-22.3,15.9-24.8c11.2-2.4,22.3,4.7,24.8,15.9l25.5,117h84.5
	c11.5,0,20.8,9.3,20.8,20.8s-9.3,20.8-20.8,20.8H333.5L300.9,151.4z M378.2,331.2h44.7v54.6h-44.7V331.2z M40.1,151.4
	c-2.4-11.2,4.7-22.3,15.9-24.8c11.2-2.4,22.3,4.7,24.8,15.9l25.5,117h84.5c11.5,0,20.8,9.3,20.8,20.8s-9.3,20.8-20.8,20.8H72.7
	L40.1,151.4z M117.4,331.2h44.7v54.6h-44.7L117.4,331.2z"/>
</svg>
